<svg width="23" height="34" viewBox="0 0 23 34" fill="none" xmlns="http://www.w3.org/2000/svg">
<g filter="url(#filter0_f_268_21)">
<path d="M8.28628 7C7.51404 8.89509 7.07399 11.0625 7.00855 13.2932C6.9431 15.524 7.25446 17.7429 7.91263 19.7361C8.57079 21.7294 9.55356 23.4297 10.7662 24.6733C11.9789 25.9169 13.3806 26.6618 14.8361 26.8362L15.1262 21.1728C14.3067 21.0746 13.5175 20.6552 12.8348 19.9551C12.152 19.2549 11.5987 18.2976 11.2282 17.1753C10.8576 16.0531 10.6823 14.8038 10.7192 13.5478C10.756 12.2919 11.0038 11.0716 11.4385 10.0047L8.28628 7Z" fill="#D9D9D9"/>
</g>
<defs>
<filter id="filter0_f_268_21" x="0.0999999" y="0.0999999" width="21.9262" height="33.6362" filterUnits="userSpaceOnUse" color-interpolation-filters="sRGB">
<feFlood flood-opacity="0" result="BackgroundImageFix"/>
<feBlend mode="normal" in="SourceGraphic" in2="BackgroundImageFix" result="shape"/>
<feGaussianBlur stdDeviation="3.45" result="effect1_foregroundBlur_268_21"/>
</filter>
</defs>
</svg>
